<?xml version="1.0" standalone="no"?>
<!DOCTYPE svg PUBLIC "-//W3C//DTD SVG 20010904//EN"
 "http://www.w3.org/TR/2001/REC-SVG-20010904/DTD/svg10.dtd">
<svg version="1.0" xmlns="http://www.w3.org/2000/svg"
 width="500.000000pt" height="500.000000pt" viewBox="0 0 500.000000 500.000000"
 preserveAspectRatio="xMidYMid meet">

<g transform="translate(0.000000,500.000000) scale(0.100000,-0.100000)"
fill="#000000" stroke="none">
<path d="M2086 4059 c35 -106 -51 -227 -220 -309 -73 -36 -93 -41 -196 -49
-243 -20 -428 -79 -585 -185 -127 -85 -209 -181 -239 -279 -27 -89 -67 -126
-220 -202 -199 -100 -236 -154 -163 -241 18 -21 39 -59 46 -84 19 -65 62 -122
133 -175 60 -45 81 -47 59 -6 -24 45 -5 57 20 13 16 -28 102 -92 125 -92 9 0
9 8 0 35 -17 49 -9 89 25 124 79 83 291 59 419 -47 20 -17 49 -54 65 -83 25
-45 30 -66 30 -122 0 -66 -1 -70 -37 -103 -31 -28 -46 -34 -82 -34 -29 0 -52
7 -70 21 -57 44 -44 -25 15 -84 22 -22 37 -43 33 -46 -3 -3 -28 -6 -55 -5 -39
0 -56 7 -87 32 l-39 31 7 -39 c4 -22 19 -63 33 -92 14 -29 31 -70 37 -90 12
-41 57 -84 96 -94 46 -12 130 2 183 30 29 14 56 24 61 21 14 -9 12 -60 -4 -98
-7 -18 -28 -47 -47 -66 l-34 -33 50 6 c105 14 224 92 298 196 17 25 17 25 11
-30 -16 -143 -110 -282 -232 -344 -45 -23 -35 -30 33 -21 87 10 186 66 278
156 l78 77 20 -46 c57 -137 132 -247 249 -363 233 -231 573 -371 890 -367 58
0 94 2 80 4 -120 18 -205 48 -280 98 -49 33 -122 97 -117 103 2 1 52 -15 110
-37 167 -63 236 -75 437 -75 151 0 187 3 265 24 319 83 587 318 705 620 22 57
70 235 70 261 0 8 -21 -21 -46 -65 -161 -283 -432 -500 -734 -590 -79 -23
-320 -48 -320 -33 0 4 34 14 76 23 284 63 540 218 714 430 146 179 254 427
295 678 74 458 -149 975 -550 1275 -229 171 -571 263 -862 232 -115 -12 -193
-29 -279 -61 l-54 -20 0 -59 0 -59 98 34 c270 92 605 65 874 -71 212 -107 423
-323 536 -549 171 -345 168 -755 -9 -1107 -94 -186 -286 -381 -479 -485 -167
-90 -323 -127 -535 -127 -352 0 -650 126 -893 378 -159 166 -256 349 -303 576
-18 86 -18 376 0 450 32 135 75 235 142 335 55 81 107 133 241 239 161 126
230 233 231 356 1 68 -16 113 -56 158 -27 29 -37 28 -37 -6 0 -46 -55 -143
-116 -205 -31 -31 -60 -57 -65 -57 -4 0 10 26 32 58 80 115 84 225 11 298 -39
39 -90 68 -140 79 -32 7 -34 6 -26 -16z m-847 -842 c25 -13 46 -28 48 -34 7
-21 -73 -91 -111 -99 -42 -7 -95 1 -120 19 -15 11 -14 16 12 58 27 43 79 79
112 78 8 0 35 -10 59 -22z"/>
<path d="M2087 2888 c-4 -20 -3 -558 1 -610 2 -15 12 -18 57 -18 l55 0 0 222
c0 131 4 218 9 213 8 -10 48 -82 178 -327 l57 -108 68 0 68 0 0 325 0 325 -60
0 -60 0 0 -217 c0 -252 4 -249 -87 -73 -33 63 -81 154 -107 203 l-48 87 -63 0
c-57 0 -63 -2 -68 -22z"/>
<path d="M2680 2585 l0 -325 190 0 190 0 0 43 c0 65 -6 69 -101 67 -46 -1
-101 -2 -121 -1 l-38 1 0 80 0 80 33 2 c17 1 68 2 112 2 l80 1 3 53 3 52 -115
0 -116 0 0 80 0 80 125 0 125 0 0 55 0 55 -185 0 -185 0 0 -325z"/>
<path d="M3138 2893 c12 -30 57 -114 111 -206 28 -49 51 -93 51 -99 0 -6 -40
-80 -90 -165 -49 -85 -90 -156 -90 -159 0 -3 30 -4 67 -2 l68 3 51 94 c28 52
55 96 60 98 5 2 36 -42 68 -97 l60 -100 63 0 c35 0 63 3 63 8 0 4 -41 75 -90
157 -89 148 -99 172 -81 191 9 9 85 137 143 242 l29 52 -65 0 -64 0 -57 -110
c-31 -60 -59 -110 -63 -110 -4 1 -32 50 -62 110 l-55 110 -62 0 c-56 0 -62 -2
-55 -17z"/>
<path d="M3670 2855 l0 -55 75 0 75 0 0 -270 0 -270 60 0 60 0 0 270 0 270 75
0 75 0 0 55 0 55 -210 0 -210 0 0 -55z"/>
</g>
</svg>
