<?xml version="1.0" standalone="no"?>
<!DOCTYPE svg PUBLIC "-//W3C//DTD SVG 20010904//EN"
 "http://www.w3.org/TR/2001/REC-SVG-20010904/DTD/svg10.dtd">
<svg version="1.0" xmlns="http://www.w3.org/2000/svg"
 width="512.000000pt" height="512.000000pt" viewBox="0 0 512.000000 512.000000"
 preserveAspectRatio="xMidYMid meet">

<g transform="translate(0.000000,512.000000) scale(0.100000,-0.100000)"
fill="#000000" stroke="none">
<path d="M1723 4883 c472 -2 1242 -2 1710 0 469 1 83 2 -858 2 -940 0 -1324
-1 -852 -2z"/>
<path d="M4710 4696 c0 -2 8 -10 18 -17 15 -13 16 -12 3 4 -13 16 -21 21 -21
13z"/>
<path d="M3450 4574 c-115 -26 -205 -76 -285 -158 -39 -41 -82 -77 -96 -81
-94 -29 -184 -108 -223 -196 -42 -92 -43 -139 -6 -357 29 -175 31 -194 17
-210 -38 -42 -57 -105 -57 -193 0 -157 59 -286 172 -375 19 -15 35 -45 52
-100 14 -44 46 -113 71 -154 40 -64 46 -79 40 -110 -20 -103 -115 -224 -213
-269 -29 -14 -52 -29 -52 -34 0 -13 36 -137 62 -212 44 -128 59 -163 73 -169
40 -15 168 -109 232 -170 118 -111 180 -227 233 -431 27 -106 81 -394 111
-599 13 -88 18 -118 68 -446 23 -146 45 -274 50 -286 9 -21 14 -21 308 -22
383 -2 480 11 624 83 222 111 369 268 462 497 21 52 22 64 25 691 l3 638 -36
54 c-94 141 -234 226 -543 331 -243 83 -317 119 -380 188 -49 53 -67 88 -87
162 l-14 56 33 42 c42 51 88 129 118 198 12 29 42 78 67 108 139 171 173 428
72 529 l-22 22 21 105 c30 154 34 254 16 354 -44 246 -223 422 -511 503 -94
26 -313 32 -405 11z m-140 -482 c0 -13 128 -92 190 -118 76 -31 192 -57 344
-79 162 -23 208 -38 245 -80 41 -47 51 -90 51 -221 0 -125 3 -131 65 -136 57
-4 70 -35 54 -120 -7 -35 -20 -82 -30 -105 -20 -48 -85 -123 -105 -123 -16 0
-27 -23 -45 -95 -21 -88 -87 -202 -156 -271 -275 -275 -680 -138 -781 264 -16
62 -23 76 -48 88 -74 38 -119 116 -133 229 -10 89 3 129 46 133 30 3 32 5 37
55 3 29 7 102 10 163 6 137 21 173 101 233 54 41 135 148 135 178 0 7 5 13 10
13 6 0 10 -4 10 -8z m32 -1561 c95 -46 159 -61 268 -61 108 0 176 16 268 61
35 17 64 29 66 27 1 -1 8 -21 15 -43 7 -22 31 -66 52 -97 l39 -58 -32 -36
c-28 -31 -190 -180 -356 -327 l-43 -38 -57 32 c-159 89 -325 224 -386 311
l-38 56 39 50 c22 27 50 74 64 105 13 31 26 55 29 54 3 -2 35 -18 72 -36z"/>
<path d="M4902 4305 c0 -16 2 -22 5 -12 2 9 2 23 0 30 -3 6 -5 -1 -5 -18z"/>
<path d="M1634 4306 c-307 -59 -568 -267 -719 -575 -107 -218 -146 -426 -165
-876 -13 -324 -26 -489 -45 -553 -8 -26 -32 -87 -53 -137 -58 -135 -86 -247
-78 -320 l6 -60 -47 -25 c-27 -14 -84 -61 -128 -105 -95 -94 -134 -164 -169
-306 -28 -109 -140 -665 -158 -781 l-11 -76 46 -74 c25 -41 54 -81 65 -91 18
-16 19 -14 31 76 17 121 92 542 132 737 49 245 95 348 194 439 92 85 180 126
393 186 l116 32 41 -103 c95 -237 287 -486 503 -654 l82 -63 0 -483 0 -484 23
-4 c12 -3 37 -4 55 -2 17 1 43 3 57 4 l25 2 0 484 0 484 28 18 c49 32 253 237
317 319 120 155 225 336 257 442 7 24 16 43 20 43 16 0 205 -52 278 -77 266
-89 372 -189 425 -399 35 -134 111 -545 181 -972 l59 -352 72 0 c39 0 74 4 77
8 2 4 1 28 -4 52 -5 25 -39 227 -75 450 -118 724 -157 915 -207 1018 -47 98
-184 210 -345 282 l-69 31 -16 77 c-8 42 -37 158 -63 257 l-47 180 -14 390
c-7 215 -21 449 -29 520 -42 338 -122 568 -252 730 -60 73 -182 159 -261 181
-31 8 -75 28 -97 44 -125 86 -273 116 -431 86z m360 -633 c16 -103 131 -267
261 -373 73 -59 76 -64 71 -95 -7 -37 1 -65 18 -65 6 0 29 10 52 22 78 41 124
0 124 -110 0 -118 -67 -244 -164 -309 -39 -27 -56 -48 -90 -116 -106 -211
-273 -379 -421 -422 -165 -47 -312 8 -468 175 -89 96 -162 227 -173 310 -6 48
-8 50 -38 50 -50 0 -91 32 -122 96 -24 49 -29 74 -32 154 -5 111 11 162 54
182 25 12 29 10 59 -25 35 -40 54 -45 88 -22 13 8 65 28 117 46 237 78 440
232 581 442 32 49 59 93 59 98 0 25 18 -4 24 -38z m137 -1635 c33 -65 73 -111
128 -149 28 -19 51 -42 51 -51 0 -32 -75 -193 -131 -278 -30 -47 -90 -126
-132 -176 -86 -103 -272 -284 -292 -284 -6 0 -43 23 -81 51 -185 136 -352 346
-482 605 l-40 80 53 28 c107 56 190 165 202 266 l6 49 31 -24 c108 -83 290
-116 431 -80 66 18 165 67 192 97 17 19 18 18 30 -36 7 -31 22 -75 34 -98z"/>
<path d="M714 910 c-54 -22 -54 -21 -54 -472 l0 -417 58 -6 c31 -4 65 -9 75
-11 16 -5 17 20 17 425 0 236 -3 437 -6 446 -5 13 -55 47 -66 44 -2 0 -13 -4
-24 -9z"/>
<path d="M2800 907 c-49 -25 -50 -33 -50 -478 l0 -417 23 -6 c28 -7 86 -7 115
0 l22 6 0 424 0 423 -22 25 c-29 31 -57 39 -88 23z"/>
</g>
</svg>
